<svg width="512" height="512" viewBox="0 0 512 512" fill="none" xmlns="http://www.w3.org/2000/svg">
<circle cx="256" cy="256" r="243.5" fill="#3A99FF" stroke="white" stroke-width="25"/>
<mask id="mask0" mask-type="alpha" maskUnits="userSpaceOnUse" x="0" y="0" width="512" height="512">
<circle cx="256" cy="256" r="256" fill="#C4C4C4"/>
</mask>
<g mask="url(#mask0)">
<path d="M378.965 395.075L313.756 362.439C307.605 359.357 303.783 353.166 303.783 346.278V323.175C305.346 321.261 306.991 319.081 308.691 316.676C317.148 304.718 323.926 291.406 328.855 277.05C338.486 272.628 344.739 263.096 344.739 252.333V225C344.739 218.42 342.282 212.044 337.913 207.063V170.716C338.295 166.958 339.797 144.585 323.633 126.128C309.612 110.118 286.861 102 256 102C225.139 102 202.388 110.118 188.367 126.122C172.203 144.579 173.705 166.958 174.087 170.716V207.063C169.718 212.044 167.261 218.42 167.261 225V252.333C167.261 260.65 171.036 268.405 177.48 273.578C183.732 298.363 196.818 317.038 201.391 323.031V345.642C201.391 352.257 197.787 358.325 191.992 361.496L131.096 394.747C111.294 405.564 99 426.296 99 448.874V471C99 503.431 201.698 512 256 512C310.302 512 413 503.431 413 471V450.206C413 426.713 399.955 405.585 378.965 395.075Z" fill="white"/>
</g>
</svg>
